<?xml version="1.0"?>
<svg width="216" height="80" xmlns="http://www.w3.org/2000/svg" xmlns:svg="http://www.w3.org/2000/svg">
 <defs>
  <clipPath id="clip0_5_2">
   <rect fill="white" height="80" id="svg_1" width="216"/>
  </clipPath>
 </defs>
 <g class="layer">
  <title>Layer 1</title>
  <path d="m32.14,0c-1.61,0.01 -3.19,0.23 -4.73,0.66c-1.52,0.44 -2.93,1.06 -4.21,1.86c1.39,3.36 4.96,7.62 9.08,11.26c4.3,3.79 9.24,7.02 12.42,8.48l0.04,0.01l0.03,0.02c2.93,1.43 5.01,3.67 6.2,6.15c0.77,1.59 1.22,3.26 1.49,4.96c2.34,-1.74 4.82,-3.13 7.34,-4.13c-0.2,-3.14 -0.93,-6.42 -2.25,-9.71c-2.78,-6.9 -7.63,-12.45 -13.13,-15.84c-3.94,-2.43 -8.18,-3.75 -12.28,-3.72l0,0zm-13.79,7.24c-0.93,1.35 -1.69,2.87 -2.26,4.51c-1.93,5.49 -1.77,12.37 1.01,19.27c1.68,4.17 4.12,7.85 7,10.86c2.85,0.81 5.65,2.05 8.29,3.74c2.05,1.3 3.86,2.8 5.43,4.42c0.52,0.12 1.03,0.22 1.55,0.3c0.97,-2.42 2.25,-4.82 3.81,-7.16c0.95,-1.41 1.99,-2.77 3.11,-4.06c0.01,-0.89 0.01,-1.75 -0.04,-2.57c-0.12,-2.23 -0.5,-4.13 -1.18,-5.55c-0.69,-1.42 -1.58,-2.41 -3.26,-3.23l0.07,0.03c-4.13,-1.88 -9.29,-5.33 -14.03,-9.52c-3.77,-3.33 -7.27,-7.05 -9.5,-11.04l0,0zm50.49,23.22c-2.44,0.01 -5.02,0.55 -7.62,1.58c-5.57,2.19 -11.15,6.63 -15.3,12.79c-2.11,3.16 -3.63,6.45 -4.58,9.67c3.71,5.9 4.62,12.67 1.95,18.36c0.43,0.59 0.92,1.14 1.44,1.65c3.9,-3.2 8.4,-5.84 11.61,-8.56c1.75,-1.48 3.07,-2.95 3.81,-4.35c0.74,-1.41 0.99,-2.69 0.61,-4.44l-0.03,-0.1l-0.01,-0.1c-1.45,-9.98 1.1,-15.84 4.82,-19.42c2.98,-2.88 5.96,-4.4 8.01,-6.41c-1.49,-0.46 -3.07,-0.69 -4.71,-0.67l0,0zm10.25,4.09c-3,3.54 -6.71,5.17 -8.92,7.3c-2.54,2.46 -4.29,5.41 -3.02,14.22c0.61,3 0.07,5.88 -1.18,8.27c-1.29,2.44 -3.19,4.42 -5.29,6.2c-3.17,2.7 -6.84,5.01 -9.91,7.26c3.48,0.86 7.43,0.45 11.47,-1.14c5.57,-2.19 11.15,-6.63 15.29,-12.8c4.13,-6.16 6,-12.84 5.74,-18.55c-0.21,-4.36 -1.63,-8.1 -4.17,-10.76l0,0zm-11.93,21.52c-0.01,-0.05 -0.02,-0.11 -0.03,-0.16l0.04,0.2c-0.01,-0.01 -0.01,-0.02 -0.01,-0.04l0,0zm-50.58,-12.22c-3.31,-0.03 -6.44,0.66 -9.07,2.02c0.01,0 0.03,0 0.04,0c1.56,0.06 3.52,-0.12 5.77,0.17c2.26,0.3 4.89,1.26 6.89,3.41c1.99,2.14 3.36,5.18 4.32,9.54l0.02,0.1l0.01,0.1c0.44,3.05 2.49,4.81 6.04,6.46c3.03,1.4 6.91,2.41 10.6,3.43c1.64,-7.01 -2.27,-15.57 -10.62,-20.91c-4.5,-2.88 -9.44,-4.28 -14.01,-4.32l0,0zm-14.63,7.09c-4.55,7.45 -0.9,18.38 9.05,24.74c9.78,6.26 21.62,5.52 27.32,-0.97c-3.32,-0.9 -7.1,-1.92 -10.56,-3.53c-4.47,-2.08 -8.73,-5.57 -9.58,-10.99c-0.82,-3.71 -1.91,-5.69 -2.81,-6.66c-0.92,-0.98 -1.62,-1.22 -2.9,-1.38c-1.28,-0.17 -3.04,-0.05 -5.11,-0.12c-1.62,-0.05 -3.52,-0.27 -5.39,-1.09l0,0zm16.21,9.25c0,0.02 0.01,0.03 0.01,0.05l-0.03,-0.2c0,0.05 0.01,0.1 0.02,0.15l0,0z" fill="#C19977" id="svg_3"/>
  <text fill="#fbfcf9" font-family="Fantasy" font-size="24" id="svg_5" stroke="#ffffff" stroke-width="0" text-anchor="middle" transform="matrix(1.41101 0 0 2.00648 -43.9909 68.4571)" x="144" xml:space="preserve" y="-4.38">DCoffee</text>
 </g>
</svg>