<?xml version="1.0" encoding="UTF-8" standalone="no" ?>
<!DOCTYPE svg PUBLIC "-//W3C//DTD SVG 1.1//EN" "http://www.w3.org/Graphics/SVG/1.1/DTD/svg11.dtd">
<svg xmlns="http://www.w3.org/2000/svg" xmlns:xlink="http://www.w3.org/1999/xlink" version="1.1" width="216" height="80" viewBox="0 0 216 80" xml:space="preserve">
<desc>Created with Fabric.js 5.2.4</desc>
<defs>
</defs>
<rect x="0" y="0" width="100%" height="100%" fill="transparent"></rect>
<g transform="matrix(0 0 0 0 0 0)" id="4e97cf0b-3dfe-4f9a-949b-4b514b241384"  >
</g>
<g transform="matrix(1 0 0 1 108 40)" id="1924eca7-4ab3-41bb-947b-a4713d7fb318"  >
<rect style="stroke: none; stroke-width: 1; stroke-dasharray: none; stroke-linecap: butt; stroke-dashoffset: 0; stroke-linejoin: miter; stroke-miterlimit: 4; fill: rgb(255,255,255); fill-rule: nonzero; opacity: 1; visibility: hidden;" vector-effect="non-scaling-stroke"  x="-108" y="-40" rx="0" ry="0" width="216" height="80" />
</g>
<g transform="matrix(0.07 0 0 0.07 92.68 39.38)" clip-path="url(#CLIPPATH_7)"  >
<clipPath id="CLIPPATH_7" >
	<rect transform="matrix(1 0 0 1 68.5 0)" id="clip0_5_2" x="-108" y="-40" rx="0" ry="0" width="216" height="80" />
</clipPath>
<path style="stroke: none; stroke-width: 1; stroke-dasharray: none; stroke-linecap: butt; stroke-dashoffset: 0; stroke-linejoin: miter; stroke-miterlimit: 4; fill: rgb(193,153,119); fill-rule: nonzero; opacity: 1;" vector-effect="non-scaling-stroke"  transform=" translate(-39.5, -40)" d="M 30.4871 0.000407928 C 28.9645 0.011014 27.4615 0.227241 26.0026 0.662945 C 24.5552 1.09574 23.2218 1.72304 22.0116 2.52192 C 23.3337 5.87857 26.7088 10.1395 30.6184 13.7768 C 34.7005 17.5748 39.381 20.8017 42.4038 22.2569 L 42.4392 22.274 L 42.474 22.2916 C 45.2517 23.7175 47.2183 25.9615 48.3534 28.437 C 49.0845 30.031 49.5103 31.7006 49.7585 33.3979 C 51.9843 31.6633 54.3306 30.2743 56.7159 29.2662 C 56.5344 26.134 55.8447 22.8495 54.5887 19.5608 C 51.9545 12.6634 47.3533 7.11059 42.1425 3.72417 C 38.3973 1.29024 34.3781 -0.0266205 30.487 0.000407928 L 30.4871 0.000407928 Z M 17.4052 7.23735 C 16.5298 8.59458 15.8119 10.1078 15.2664 11.7513 C 13.4447 17.238 13.5925 24.1207 16.2269 31.0184 C 17.8212 35.1929 20.1369 38.8737 22.8716 41.8811 C 25.5658 42.6864 28.2306 43.9308 30.7337 45.6192 C 32.6677 46.9239 34.3911 48.4173 35.8846 50.0416 C 36.372 50.16 36.8596 50.2609 37.3467 50.3403 C 38.2747 47.9217 39.4791 45.5155 40.9634 43.1812 C 41.8615 41.7676 42.8455 40.4104 43.9099 39.1172 C 43.9223 38.229 43.9151 37.3684 43.8728 36.5467 C 43.7581 34.3246 43.402 32.424 42.7496 31.0018 C 42.0977 29.5796 41.2481 28.586 39.6576 27.7697 L 39.7278 27.8042 C 35.8108 25.9182 30.9194 22.4718 26.4178 18.2836 C 22.8394 14.9546 19.52 11.2257 17.4052 7.23717 L 17.4052 7.23735 Z M 65.302 30.4552 C 62.9894 30.4741 60.543 31.0107 58.0679 32.0373 C 52.7878 34.2272 47.486 38.6661 43.5646 44.8325 C 41.5585 47.9873 40.1169 51.2765 39.2206 54.5016 C 42.739 60.3996 43.6031 67.1745 41.0685 72.8642 C 41.4782 73.449 41.9355 73.999 42.4358 74.5086 C 46.1415 71.3141 50.4122 68.6679 53.4474 65.9505 C 55.1065 64.4657 56.3627 62.9954 57.0607 61.5952 C 57.7587 60.1947 57.9989 58.91 57.636 57.1607 L 57.6147 57.0589 L 57.6007 56.9562 C 56.2219 46.9841 58.6408 41.1238 62.1659 37.5386 C 65.0005 34.6561 67.822 33.1379 69.7685 31.1335 C 68.3622 30.6665 66.8627 30.4424 65.302 30.4552 L 65.302 30.4552 Z M 75.0175 34.5528 C 72.1703 38.0887 68.6599 39.7219 66.5626 41.8549 C 64.1526 44.3059 62.489 47.2563 63.7008 56.0711 C 64.2843 59.0682 63.7715 61.9466 62.578 64.3408 C 61.3629 66.778 59.5458 68.7598 57.5606 70.5371 C 54.5451 73.2369 51.0666 75.5487 48.1567 77.804 C 51.4568 78.6605 55.214 78.2461 59.0397 76.6591 C 64.3199 74.4694 69.622 70.0303 73.5431 63.8639 C 77.4647 57.6973 79.2341 51.0156 78.9753 45.3096 C 78.7773 40.9457 77.4284 37.2065 75.0177 34.553 L 75.0175 34.5528 Z M 63.7008 56.0711 C 63.6905 56.0173 63.6823 55.9637 63.671 55.9098 L 63.7066 56.1139 C 63.705 56.0996 63.7031 56.0854 63.701 56.0711 L 63.7008 56.0711 Z M 15.7234 43.8529 C 12.576 43.8245 9.61113 44.5141 7.11572 45.8727 C 7.13284 45.8732 7.14773 45.8744 7.16485 45.8749 C 8.64241 45.9271 10.4973 45.753 12.633 46.0443 C 14.7685 46.3358 17.2703 47.3047 19.1654 49.4473 C 21.0607 51.5897 22.3602 54.6272 23.2654 58.9894 L 23.2868 59.091 L 23.3009 59.1939 C 23.7208 62.2376 25.6612 63.9983 29.0251 65.6469 C 31.8953 67.0536 35.5803 68.0581 39.0782 69.0807 C 40.6448 62.067 36.9278 53.5127 29.0092 48.1713 C 24.7395 45.2913 20.0593 43.8921 15.7237 43.8529 L 15.7234 43.8529 Z M 1.84189 50.9431 C -2.48463 58.3896 0.985145 69.3164 10.4206 75.6813 C 19.7046 81.944 30.9294 81.2026 36.3318 74.7062 C 33.1753 73.8074 29.597 72.7868 26.3108 71.1764 C 22.0733 69.0997 18.0344 65.6099 17.2194 60.1902 C 16.4433 56.4781 15.4063 54.4972 14.5468 53.5255 C 13.6839 52.5492 13.011 52.3118 11.7989 52.1467 C 10.5867 51.9811 8.9208 52.0993 6.94793 52.0299 C 5.41045 51.9758 3.60657 51.7553 1.84189 50.9433 L 1.84189 50.9431 Z M 17.2196 60.1901 C 17.2234 60.2072 17.2271 60.2229 17.2307 60.2402 L 17.1953 60.0356 C 17.2025 60.0876 17.2119 60.1382 17.2198 60.1902 L 17.2196 60.1901 Z" stroke-linecap="round" />
</g>
<g transform="matrix(0.07 0 0 0.07 109.98 39.76)" style="" id="3278bb95-3bb6-4fed-a459-6c6a6b671e6b"  >
		<text xml:space="preserve" font-family="Raleway" font-size="105" font-style="normal" font-weight="900" style="stroke: none; stroke-width: 1; stroke-dasharray: none; stroke-linecap: butt; stroke-dashoffset: 0; stroke-linejoin: miter; stroke-miterlimit: 4; fill: rgb(241,237,237); fill-rule: nonzero; opacity: 1; white-space: pre;" ><tspan x="-206.06" y="32.98" >DCoffee</tspan></text>
</g>
</svg>